<svg width="250" height="250" viewBox="0 0 500 500">
    <clipPath id="python-shape" clipPathUnits="objectBoundingBox">
        <path d="M0.5,0 C0.3,0,0.1,0.2,0.1,0.4 V0.6 H0.9 V0.5 H0.3 V0.4 C0.3,0.35,0.35,0.3,0.4,0.3 H0.7 C0.75,0.3,0.8,0.35,0.8,0.4 V0.6 C0.8,0.72,0.72,0.78,0.6,0.78 H0.2 C0.1,0.78,0,0.86,0,0.94 V1 C0,1.1,0.1,1.2,0.2,1.2 H0.5 C0.7,1.2,0.9,1,0.9,0.8 V0.6 H0.7 V0.8 C0.7,0.85,0.65,0.9,0.6,0.9 H0.2 C0.15,0.9,0.1,0.85,0.1,0.8 V0.6 H0.9 V0.4 C0.9,0.2,0.7,0,0.5,0 Z" />
    </clipPath>
    <image xlink:href="your-image.jpg" width="250" height="250" clip-path="url(#python-shape)" />
</svg>
